<svg id="Logo_ICTS" data-name="Logo ICTS" xmlns="http://www.w3.org/2000/svg" xmlns:xlink="http://www.w3.org/1999/xlink" width="109.712" height="33.831" viewBox="0 0 109.712 33.831">
  <defs>
    <clipPath id="clip-path">
      <rect id="Ret창ngulo_18727" data-name="Ret창ngulo 18727" width="109.712" height="33.831" fill="none"/>
    </clipPath>
    <clipPath id="clip-path-2">
      <rect id="Ret창ngulo_18726" data-name="Ret창ngulo 18726" width="109.712" height="33.83" fill="none"/>
    </clipPath>
  </defs>
  <g id="Grupo_6055" data-name="Grupo 6055" clip-path="url(#clip-path)">
    <g id="Grupo_6054" data-name="Grupo 6054" transform="translate(0 0)">
      <g id="Grupo_6053" data-name="Grupo 6053" clip-path="url(#clip-path-2)">
        <path id="Caminho_14693" data-name="Caminho 14693" d="M31.943.989a3.4,3.4,0,0,0-4.8,0L20.433,7.7l5.325,5.325,1.734-1.735a2.879,2.879,0,0,1,1.43-.779V7.04a1.127,1.127,0,0,1-.505-.913A1.14,1.14,0,0,1,29.5,4.972a1.128,1.128,0,0,1,.667,2.068v3.474a2.881,2.881,0,0,1,1.43.779l1.734,1.735L38.657,7.7Z" transform="translate(-11.434 0)" fill="#fff"/>
        <path id="Caminho_14694" data-name="Caminho 14694" d="M64.7,27.146l-6.714-6.714-5.325,5.325L54.4,27.491a2.885,2.885,0,0,1,.779,1.43H58.65a1.127,1.127,0,0,1,.913-.506,1.128,1.128,0,1,1,.028,2.257,1.127,1.127,0,0,1-.941-.506H55.178A2.882,2.882,0,0,1,54.4,31.6l-1.735,1.734,5.325,5.325L64.7,31.943a3.4,3.4,0,0,0,0-4.8" transform="translate(-29.471 -11.434)" fill="#fff"/>
        <path id="Caminho_14695" data-name="Caminho 14695" d="M10.514,30.167H7.042a1.128,1.128,0,0,1-.913.506A1.128,1.128,0,1,1,6.1,28.416a1.128,1.128,0,0,1,.941.506h3.473a2.877,2.877,0,0,1,.779-1.429l1.734-1.734L7.7,20.433.99,27.147a3.4,3.4,0,0,0,0,4.8L7.7,38.657l5.325-5.325L11.294,31.6a2.881,2.881,0,0,1-.78-1.431" transform="translate(0 -11.434)" fill="#fff"/>
        <path id="Caminho_14696" data-name="Caminho 14696" d="M33.327,39.331l-1.312-1.308,2.347-2.347a2.028,2.028,0,0,0,0-2.863l-3.391-3.387a2.023,2.023,0,0,0-2.858,0l-3.391,3.387a2.029,2.029,0,0,0,0,2.863l2.343,2.343-3.1,3.1-3.536,3.536,5.029,5.025a.5.5,0,0,0,.075.066.837.837,0,0,0,1.4-.621V41.335a.739.739,0,0,1,.74-.74H31.39a.738.738,0,0,1,.735.74V49.1a.868.868,0,0,0,1.48.612l5.047-5.051ZM29.54,37.226a2.979,2.979,0,1,1,2.982-2.977,2.979,2.979,0,0,1-2.982,2.977" transform="translate(-11.431 -16.136)" fill="#fff"/>
        <path id="Caminho_14697" data-name="Caminho 14697" d="M90.073,35.925a5.228,5.228,0,0,1,1.207-3.658,4.31,4.31,0,0,1,3.355-1.324,4.372,4.372,0,0,1,2.1.443,3.155,3.155,0,0,1,1.194,1.044q.233.373-.007.54l-.5.347q-.247.174-.494-.207a3.279,3.279,0,0,0-.754-.714,2.4,2.4,0,0,0-1.474-.414,2.919,2.919,0,0,0-2.447,1.037,4.6,4.6,0,0,0-.814,2.9,4.686,4.686,0,0,0,.794,2.9,2.989,2.989,0,0,0,2.535,1.037,4.882,4.882,0,0,0,1.511-.21,1.7,1.7,0,0,0,.9-.584V37.306H95.2q-.367,0-.367-.3v-.493q0-.3.367-.3H98.1q.367,0,.367.3v3.148a7.543,7.543,0,0,1-1.627.92,5.825,5.825,0,0,1-2.134.327,4.4,4.4,0,0,1-3.414-1.324,5.21,5.21,0,0,1-1.214-3.658" transform="translate(-50.405 -17.316)" fill="#fff"/>
        <path id="Caminho_14698" data-name="Caminho 14698" d="M112.147,44.071a.264.264,0,0,1-.3-.3v-6.4a.265.265,0,0,1,.3-.3h.56a.265.265,0,0,1,.3.3v.8a2.563,2.563,0,0,1,.761-.907,1.859,1.859,0,0,1,1.092-.307,1.741,1.741,0,0,1,.606.074.153.153,0,0,1,.114.2l-.154.547c-.022.08-.08.111-.173.093a2.264,2.264,0,0,0-.443-.047,1.54,1.54,0,0,0-1.294.7,3.212,3.212,0,0,0-.51,1.918v3.328a.263.263,0,0,1-.3.3Z" transform="translate(-62.591 -20.68)" fill="#fff"/>
        <path id="Caminho_14699" data-name="Caminho 14699" d="M121.513,41.775V37.513a.265.265,0,0,1,.3-.3h.574a.265.265,0,0,1,.3.3v3.941q0,1.307.434,1.657a1.653,1.653,0,0,0,1.074.35,1.629,1.629,0,0,0,1.3-.517,2.711,2.711,0,0,0,.45-1.771V37.513a.264.264,0,0,1,.3-.3h.567a.264.264,0,0,1,.3.3v6.4a.265.265,0,0,1-.3.3h-.56a.265.265,0,0,1-.3-.3v-.533A2.98,2.98,0,0,1,125,44.1a2.944,2.944,0,0,1-1.236.233,2.042,2.042,0,0,1-1.707-.684,2.94,2.94,0,0,1-.54-1.871" transform="translate(-67.998 -20.824)" fill="#fff"/>
        <path id="Caminho_14700" data-name="Caminho 14700" d="M137.544,46.739q-.281,0-.281-.3v-9.07a.266.266,0,0,1,.3-.3h.56q.24,0,.24.3V37.9a2.929,2.929,0,0,1,.84-.694,2.62,2.62,0,0,1,1.246-.253,2.3,2.3,0,0,1,2.058,1.09,4.876,4.876,0,0,1,0,5.048,2.3,2.3,0,0,1-2.058,1.09,2.62,2.62,0,0,1-1.246-.253,2.929,2.929,0,0,1-.84-.694h-.013q.013.2.013.407v2.794q0,.3-.281.3Zm.819-5.4a2.036,2.036,0,0,0,.487,1.49,1.65,1.65,0,0,0,1.222.491,1.549,1.549,0,0,0,1.467-.761,4.787,4.787,0,0,0,0-3.975,1.549,1.549,0,0,0-1.467-.76,1.652,1.652,0,0,0-1.222.49,2.036,2.036,0,0,0-.487,1.49Z" transform="translate(-76.812 -20.68)" fill="#fff"/>
        <path id="Caminho_14701" data-name="Caminho 14701" d="M152.1,40.57a3.981,3.981,0,0,1,.831-2.591,3.4,3.4,0,0,1,4.862,0,4.458,4.458,0,0,1,0,5.182,3.4,3.4,0,0,1-4.862,0,3.98,3.98,0,0,1-.831-2.591m1.241,0a3.23,3.23,0,0,0,.554,2.074,1.935,1.935,0,0,0,2.934,0,3.23,3.23,0,0,0,.554-2.074,3.23,3.23,0,0,0-.554-2.074,1.935,1.935,0,0,0-2.934,0,3.23,3.23,0,0,0-.554,2.074" transform="translate(-85.117 -20.68)" fill="#fff"/>
        <path id="Caminho_14702" data-name="Caminho 14702" d="M174.488,38.452q-.552,0-.552-.591V27.736q0-.591.552-.591h1.2q.552,0,.552.591V37.86q0,.591-.552.591Z" transform="translate(-97.334 -15.19)" fill="#fff"/>
        <path id="Caminho_14703" data-name="Caminho 14703" d="M182.645,32.458a6.392,6.392,0,0,1,1.38-4.321,4.971,4.971,0,0,1,3.982-1.6,6.206,6.206,0,0,1,2.539.466,2.826,2.826,0,0,1,1.467,1.348q.284.584-.094.789l-.946.5q-.5.268-.82-.3a1.8,1.8,0,0,0-.761-.654,2.773,2.773,0,0,0-1.3-.292,2.528,2.528,0,0,0-2.318,1.045,5.659,5.659,0,0,0-.662,3.016,5.658,5.658,0,0,0,.662,3.016,2.527,2.527,0,0,0,2.318,1.045,2.673,2.673,0,0,0,1.5-.4,2.913,2.913,0,0,0,.848-.765q.386-.592.82-.3l.946.631q.386.26.079.788a3.614,3.614,0,0,1-1.569,1.348,5.96,5.96,0,0,1-2.7.56,4.982,4.982,0,0,1-3.962-1.6,6.333,6.333,0,0,1-1.4-4.321" transform="translate(-102.207 -14.849)" fill="#fff"/>
        <path id="Caminho_14704" data-name="Caminho 14704" d="M206.792,29.164q-.614,0-.614-.513v-.994q0-.512.608-.512h8.339q.608,0,.609.512v.994q0,.513-.614.513h-3.013v8.855q0,.433-.394.433H210.2q-.394,0-.395-.433V29.164Z" transform="translate(-115.376 -15.191)" fill="#fff"/>
        <path id="Caminho_14705" data-name="Caminho 14705" d="M229.712,37.268q-.489-.371-.236-.749l.607-.915q.3-.449.876-.047a7.566,7.566,0,0,0,1.155.635,3.557,3.557,0,0,0,1.5.327,4.436,4.436,0,0,0,1.064-.126,1.324,1.324,0,0,0,.781-.489,1.409,1.409,0,0,0,.268-.86,1.531,1.531,0,0,0-.118-.623,1.007,1.007,0,0,0-.386-.442,3.5,3.5,0,0,0-.552-.292,10.006,10.006,0,0,0-1.249-.428,13.9,13.9,0,0,1-1.486-.51,4.415,4.415,0,0,1-1.2-.68,3.266,3.266,0,0,1-.844-.972,3.023,3.023,0,0,1-.3-1.463,2.694,2.694,0,0,1,.71-1.877,3.186,3.186,0,0,1,1.632-1,7.969,7.969,0,0,1,1.861-.221,6.947,6.947,0,0,1,1.92.284,4.067,4.067,0,0,1,1.494.709q.5.418.244.757l-.639.859q-.323.442-.867.071a7.718,7.718,0,0,0-.95-.528,2.858,2.858,0,0,0-1.257-.292,4.3,4.3,0,0,0-.856.079,1.33,1.33,0,0,0-.69.378,1.007,1.007,0,0,0-.3.741,1.037,1.037,0,0,0,.221.69,1.485,1.485,0,0,0,.489.395,3.93,3.93,0,0,0,.544.217q.851.276,1.522.485a11.357,11.357,0,0,1,1.238.461,5.158,5.158,0,0,1,1.206.71,2.651,2.651,0,0,1,.69.97,3.606,3.606,0,0,1,.272,1.467,2.863,2.863,0,0,1-.8,2.085,3.72,3.72,0,0,1-1.786,1.064,8.022,8.022,0,0,1-1.912.24,7.794,7.794,0,0,1-2.232-.264,5.274,5.274,0,0,1-1.632-.848" transform="translate(-128.366 -14.85)" fill="#fff"/>
      </g>
    </g>
  </g>
</svg>
