<svg xmlns="http://www.w3.org/2000/svg" width="349" height="163.318" viewBox="0 0 349 163.318">
  <g id="Grupo_7440" data-name="Grupo 7440" transform="translate(-541 -386)">
    <rect id="Retângulo_20945" data-name="Retângulo 20945" width="349" height="163" transform="translate(541 386)" fill="#29b6f6"/>
    <path id="Caminho_16398" data-name="Caminho 16398" d="M300.156,908.256,156.121,1069.9l-43.928,1.214V908H261.066" transform="translate(429.274 -521.799)" fill="#06afd5"/>
    <path id="schedule_FILL0_wght400_GRAD0_opsz24" d="M156.479-795.471l8.05-8.05L143.253-824.8v-26.451h-11.5V-820.2ZM137.5-764.994a55.993,55.993,0,0,1-22.426-4.528A58.069,58.069,0,0,1,96.82-781.814a58.07,58.07,0,0,1-12.291-18.257A55.993,55.993,0,0,1,80-822.5a55.994,55.994,0,0,1,4.528-22.426A58.069,58.069,0,0,1,96.82-863.18a58.069,58.069,0,0,1,18.257-12.291A55.993,55.993,0,0,1,137.5-880a55.993,55.993,0,0,1,22.426,4.528,58.069,58.069,0,0,1,18.257,12.291,58.068,58.068,0,0,1,12.291,18.257,55.994,55.994,0,0,1,4.528,22.426,55.994,55.994,0,0,1-4.528,22.426,58.069,58.069,0,0,1-12.291,18.257,58.069,58.069,0,0,1-18.257,12.291A55.993,55.993,0,0,1,137.5-764.994ZM137.5-822.5Zm0,46a44.346,44.346,0,0,0,32.561-13.441A44.346,44.346,0,0,0,183.505-822.5a44.346,44.346,0,0,0-13.441-32.561A44.346,44.346,0,0,0,137.5-868.5a44.346,44.346,0,0,0-32.561,13.441A44.346,44.346,0,0,0,91.5-822.5a44.346,44.346,0,0,0,13.441,32.561A44.346,44.346,0,0,0,137.5-776.495Z" transform="translate(578.083 1288.97)" fill="#ebebeb"/>
  </g>
</svg>
